Motion_sv09_l
version=1
nRows=15
nColumns=43
inDegrees=yes
endheader
time	pelvis_tilt	pelvis_list	pelvis_rotation	pelvis_tx	pelvis_ty	pelvis_tz	hip_flexion_r	hip_adduction_r	hip_rotation_r	knee_angle_r	ankle_angle_r	subtalar_angle_r	mtp_angle_r	hip_flexion_l	hip_adduction_l	hip_rotation_l	knee_angle_l	ankle_angle_l	subtalar_angle_l	mtp_angle_l	lumbar_extension	lumbar_bending	lumbar_rotation	neck_flexion	neck_lateral_bending	neck_rotation	arm_flex_r	arm_add_r	arm_rot_r	elbow_flex_r	pro_sup_r	wrist_flex_r	wrist_dev_r	hand_finger_flex_r	arm_flex_l	arm_add_l	arm_rot_l	elbow_flex_l	pro_sup_l	wrist_flex_l	wrist_dev_l	hand_finger_flex_l
      0.54500000	    -24.48063688	     15.25685383	     99.76544764	      0.00354161	      1.34763384	      1.21244572	     89.77518772	    -12.97874036	     -1.82019666	   -116.31755158	     16.54921257	     -8.84190606	      8.27585795	     86.21582192	    -10.47314675	      7.97691464	   -135.60604548	     16.56355845	      5.58886264	    -22.94535411	    -66.42034383	      6.02966041	    -11.18961296	     14.65555614	     -2.57629839	     -3.62606338	     16.79875337	    -25.58342243	     17.82659936	     58.72316171	    158.62543284	    -24.33504569	    -11.40209782	     72.67284396	    126.21849258	    -29.97947449	     85.68887830	     67.64449860	    130.25603477	    -36.56111976	    -17.92090592	     -1.16973899
      0.54750000	    -24.50577762	     15.42393360	     99.69073472	      0.00338196	      1.34675011	      1.20913892	     89.45192950	    -13.12072265	     -1.58367435	   -115.26598601	     16.28588702	     -8.82246843	      8.27012463	     85.89863268	    -10.56242320	      8.20689790	   -135.98485579	     16.75540833	      5.74330354	    -22.99083712	    -66.33424931	      5.98923209	    -11.05788635	     14.59332487	     -2.78233755	     -3.78959470	     16.15091058	    -25.49239843	     17.38674724	     58.71710433	    158.82475712	    -24.71484961	    -11.40596042	     72.74164320	    126.07467698	    -29.90552252	     85.05223986	     67.62484641	    129.95304960	    -36.45011980	    -17.80091268	     -1.28374591
      0.55000000	    -24.44699541	     15.54244957	     99.57089365	      0.00324121	      1.34568281	      1.20579654	     89.13078589	    -13.18212020	     -1.44710980	   -114.18303108	     16.10674305	     -8.98251317	      8.30141754	     85.68678257	    -10.70424124	      8.57462654	   -136.38521102	     17.00547572	      6.13829778	    -23.14059634	    -66.21356722	      5.91748590	    -10.58986871	     14.63841558	     -2.83564894	     -4.39554185	     15.14454958	    -25.52149169	     16.53928660	     58.97566566	    159.25082310	    -25.28616155	    -11.53136040	     73.09727159	    125.74692609	    -29.43972936	     84.03246678	     67.37139789	    129.67350083	    -35.84724419	    -17.94855590	     -1.52709074
      0.55250000	    -24.48846699	     15.72654456	     99.51634689	      0.00303304	      1.34473837	      1.20241918	     88.79257555	    -13.35181870	     -1.21584593	   -113.17510201	     15.69822606	     -8.88940604	      8.23879956	     85.36471127	    -10.74357401	      8.80555839	   -136.77534401	     17.07148594	      6.15008997	    -23.16142370	    -66.10983205	      5.91628788	    -10.58660097	     14.49358805	     -3.15293601	     -4.32334964	     14.60344755	    -25.36597834	     16.22089930	     58.90271846	    159.33636867	    -25.38045144	    -11.51758185	     73.13772220	    125.72217995	    -29.58825691	     83.60388854	     67.48586632	    129.51329392	    -35.90913455	    -17.87010464	     -1.63722016
      0.55500000	    -24.51981794	     15.95500351	     99.44915317	      0.00277974	      1.34405249	      1.19909951	     88.35840584	    -13.52704776	     -1.02138181	   -112.13161880	     15.28575571	     -8.88484338	      8.16301211	     84.96648860	    -10.80328679	      9.02945279	   -137.15969747	     17.21810430	      6.22678938	    -23.17330092	    -66.06687547	      5.93040438	    -10.48761856	     14.40397621	     -3.50714955	     -4.40306104	     14.00247168	    -25.26806057	     15.79620160	     58.90803593	    159.62052593	    -25.59611183	    -11.55257150	     73.17342215	    125.56995019	    -29.65779525	     82.97029034	     67.56121107	    129.25908876	    -35.90565051	    -17.68771244	     -1.74244431
      0.55750000	    -24.53066474	     16.19512175	     99.38081265	      0.00259192	      1.34330728	      1.19570894	     87.89100575	    -13.69906057	     -0.88239221	   -111.10021820	     14.85016636	     -8.92561817	      8.07308646	     84.56938430	    -10.87384217	      9.29156919	   -137.54576311	     17.35917720	      6.28694395	    -23.17981921	    -66.02931659	      5.94554276	    -10.32008977	     14.30247405	     -3.84737382	     -4.56805759	     13.30604736	    -25.16979512	     15.23711019	     58.98338420	    159.97090431	    -25.78658952	    -11.62786538	     73.22345931	    125.41591400	    -29.68285115	     82.31350418	     67.63842034	    129.06274173	    -35.82050238	    -17.55244990	     -1.82249948
      0.56000000	    -24.40641687	     16.39380757	     99.26327440	      0.00254465	      1.34245611	      1.19235462	     87.37847843	    -13.76442826	     -0.90666927	   -109.99033057	     14.50895083	     -9.28243335	      7.93139199	     84.27799943	    -10.99627390	      9.71253845	   -137.91804484	     17.50092584	      6.36953198	    -23.20118464	    -65.98434398	      5.95381999	     -9.72275820	     14.35185540	     -3.99164358	     -5.23813388	     12.20294621	    -25.16186114	     14.10319441	     59.39923578	    160.80501026	    -25.80809057	    -11.88713088	     73.43856215	    124.99471055	    -29.25209408	     81.08015478	     67.46022767	    129.14788976	    -35.21722150	    -17.64431915	     -2.00128222
      0.56250000	    -24.45012917	     16.61587783	     99.19720255	      0.00223433	      1.34152140	      1.18892017	     86.97175868	    -13.96677066	     -0.73069454	   -109.01065009	     13.98012548	     -9.14296662	      7.83593471	     83.90953564	    -11.04831082	      9.90706750	   -138.33825641	     17.56746142	      6.24503304	    -23.18633227	    -65.88420375	      5.96580765	     -9.71679788	     14.11848000	     -4.38869642	     -5.14878592	     11.65002059	    -25.03276282	     13.75310446	     59.38290350	    160.89251006	    -25.81057092	    -11.89107342	     73.42329405	    124.97541627	    -29.47954854	     80.66867402	     67.62009877	    129.07013432	    -35.30807576	    -17.58721180	     -2.10593391
      0.56500000	    -24.44070800	     16.92880718	     99.14077908	      0.00199897	      1.34100776	      1.18553848	     86.36041440	    -14.12314624	     -0.59745891	   -107.96410831	     13.46457816	     -9.20369324	      7.71990174	     83.40602567	    -11.09362047	     10.09575229	   -138.71105015	     17.69051387	      5.87102869	    -23.13220588	    -65.89821271	      6.03867625	     -9.52712048	     14.00130260	     -4.84842400	     -5.30225891	     10.99420027	    -24.97700526	     13.24520597	     59.48813315	    161.29890923	    -25.84913607	    -12.06818523	     73.38666826	    124.70409484	    -29.54294735	     79.87217526	     67.70841409	    128.95326372	    -35.29011061	    -17.40313872	     -2.25071046
      0.56750000	    -24.43062244	     17.21563288	     99.07865984	      0.00182466	      1.34034729	      1.18211183	     85.77949993	    -14.32706572	     -0.54111721	   -106.92884144	     12.93503522	     -9.25880588	      7.60308043	     82.94673789	    -11.15945592	     10.25639176	   -139.09516313	     17.74289196	      5.35517362	    -23.05011625	    -65.88221021	      6.08465210	     -9.29755488	     13.80942143	     -5.22997069	     -5.49789883	     10.24731715	    -24.87718040	     12.55655265	     59.61992151	    161.71201939	    -25.82399591	    -12.25882662	     73.34953325	    124.47180262	    -29.57785502	     79.08878385	     67.81205594	    128.96157816	    -35.16039508	    -17.29769695	     -2.38289916
      0.57000000	    -24.41811173	     17.45463841	     99.03589794	      0.00161041	      1.33948355	      1.17854672	     85.23737042	    -14.54814972	     -0.50103864	   -105.93122356	     12.56210110	     -9.42132422	      7.49532772	     82.57025514	    -11.21832531	     10.37982769	   -139.50374691	     17.65212372	      4.56821631	    -22.84939299	    -65.80990917	      6.11286353	     -8.97653845	     13.64781790	     -5.40400325	     -5.94193747	      9.31734004	    -24.74259004	     11.57462342	     59.83917384	    162.33741754	    -25.63579567	    -12.48724455	     73.27013159	    124.09121291	    -29.46927266	     77.99233244	     67.87872764	    129.28667875	    -34.72072588	    -17.30456491	     -2.64313892
      0.57250000	    -24.46603274	     17.69447788	     98.98957181	      0.00134414	      1.33844649	      1.17491962	     84.76388589	    -14.79280041	     -0.37334011	   -104.99929542	     11.99464912	     -9.24273449	      7.40832675	     82.14911995	    -11.27885065	     10.53645515	   -139.94032065	     17.79121084	      4.27242749	    -22.78286637	    -65.67612467	      6.12882419	     -8.97651597	     13.28903349	     -5.78520491	     -5.83998337	      8.74845357	    -24.58391198	     11.20925548	     59.76863949	    162.42756999	    -25.66080837	    -12.48694750	     73.22614556	    124.03103560	    -29.74498320	     77.60313393	     68.10928587	    129.20495602	    -34.79680224	    -17.20997084	     -2.74674818
      0.57500000	    -24.48554293	     17.99283914	     98.96781844	      0.00104593	      1.33773786	      1.17129861	     84.15300381	    -15.06388832	     -0.29022411	   -104.03258129	     11.46424356	     -9.16574430	      7.32807636	     81.62824757	    -11.31364400	     10.66111941	   -140.35065935	     17.93411242	      3.70666050	    -22.69938609	    -65.60872702	      6.20628713	     -8.90864944	     12.95065246	     -6.17581708	     -5.86226754	      8.16645047	    -24.45171615	     10.79477121	     59.69785373	    162.66116804	    -25.75479861	    -12.56415651	     73.17294300	    123.80836329	    -29.98518637	     76.98930828	     68.36901840	    129.03464423	    -34.84080508	    -16.99083048	     -2.85312363
      0.57750000	    -24.49521753	     18.29725216	     98.98030864	      0.00069208	      1.33710273	      1.16765753	     83.50172361	    -15.36572275	     -0.23276085	   -103.06152888	     10.96531760	     -9.14041847	      7.25909585	     81.09312558	    -11.30442343	     10.77563664	   -140.75303164	     18.01987772	      2.99688024	    -22.61198767	    -65.54586389	      6.32149379	     -8.80039783	     12.62958333	     -6.56272101	     -5.95348340	      7.54415707	    -24.33922377	     10.34755930	     59.64811764	    162.96448403	    -25.88469633	    -12.66278314	     73.12977578	    123.54139477	    -30.17373083	     76.29764541	     68.62923509	    128.87438532	    -34.77390356	    -16.74300345	     -2.92955357
      0.58000000	    -24.51709587	     18.57930988	     99.00635859	      0.00036777	      1.33639665	      1.16400285	     82.86206938	    -15.69751871	     -0.20542432	   -102.09716439	     10.47153755	     -9.10989218	      7.19924207	     80.56928014	    -11.27073224	     10.89960277	   -141.14444070	     18.08719154	      2.31795877	    -22.53296389	    -65.45551761	      6.42738410	     -8.70459306	     12.29802528	     -6.90985663	     -6.05040288	      6.91191648	    -24.20889922	      9.91347179	     59.59188365	    163.25599471	    -26.02682798	    -12.71960478	     73.10554280	    123.28139014	    -30.37022423	     75.60861836	     68.92275866	    128.72907057	    -34.65926374	    -16.51420888	     -2.97827987
